<?xml version="1.0" encoding="UTF-8" standalone="no"?>
<!-- Created with Inkscape (http://www.inkscape.org/) -->

<svg
   xmlns:dc="http://purl.org/dc/elements/1.1/"
   xmlns:cc="http://creativecommons.org/ns#"
   xmlns:rdf="http://www.w3.org/1999/02/22-rdf-syntax-ns#"
   xmlns:svg="http://www.w3.org/2000/svg"
   xmlns="http://www.w3.org/2000/svg"
   xmlns:sodipodi="http://sodipodi.sourceforge.net/DTD/sodipodi-0.dtd"
   xmlns:inkscape="http://www.inkscape.org/namespaces/inkscape"
   width="129.70399mm"
   height="99.503815mm"
   viewBox="0 0 129.70399 99.503815"
   version="1.1"
   id="svg8"
   inkscape:version="0.92.3 (2405546, 2018-03-11)"
   sodipodi:docname="logo.svg"
   inkscape:export-filename="/home/apiad/Projects/personal/auditorium/auditorium/static/img/logo.png"
   inkscape:export-xdpi="300.01236"
   inkscape:export-ydpi="300.01236">
  <defs
     id="defs2" />
  <sodipodi:namedview
     id="base"
     pagecolor="#ffffff"
     bordercolor="#666666"
     borderopacity="1.0"
     inkscape:pageopacity="0.0"
     inkscape:pageshadow="2"
     inkscape:zoom="0.7"
     inkscape:cx="189.12606"
     inkscape:cy="139.98375"
     inkscape:document-units="mm"
     inkscape:current-layer="layer1"
     showgrid="false"
     fit-margin-top="10"
     fit-margin-left="10"
     fit-margin-right="10"
     fit-margin-bottom="10"
     inkscape:window-width="1920"
     inkscape:window-height="1005"
     inkscape:window-x="0"
     inkscape:window-y="0"
     inkscape:window-maximized="1" />
  <metadata
     id="metadata5">
    <rdf:RDF>
      <cc:Work
         rdf:about="">
        <dc:format>image/svg+xml</dc:format>
        <dc:type
           rdf:resource="http://purl.org/dc/dcmitype/StillImage" />
        <dc:title />
      </cc:Work>
    </rdf:RDF>
  </metadata>
  <g
     inkscape:label="Layer 1"
     inkscape:groupmode="layer"
     id="layer1"
     transform="translate(25.100433,3.3240087)">
    <path
       style="fill:#1b55c1;fill-opacity:1;stroke-width:0.26458332"
       d="m 11.787998,54.858999 c 0.12074,-4.097332 0.2537,-4.625662 1.50416,-5.976744 2.69475,-2.911594 7.78594,-2.269839 9.60474,1.210702 0.50886,0.973775 0.60432,1.643586 0.69807,4.898332 l 0.1086,3.77032 h -6.01529 -6.01529 z m 44.23798,3.21502 c -0.25569,-1.01876 0.0532,-6.729035 0.41359,-7.646788 0.76718,-1.953418 2.9735,-3.360348 5.28362,-3.369273 1.92829,-0.0074 3.524,0.668256 4.63028,1.960695 1.17592,1.373799 1.47667,2.708418 1.47667,6.552816 v 3.19014 h -5.81579 -5.81579 z m -29.0868,-1.32547 c -0.22955,-2.14355 0.0491,-5.502916 0.5332,-6.429262 1.7025,-3.257447 6.13578,-3.88887 8.77487,-1.249786 1.40146,1.401461 1.68167,2.453156 1.6835,6.318668 l 0.002,3.10886 h -5.4029 -5.4029 z m 12.00069,-1.88955 c -0.10078,-3.310818 -0.17459,-3.761615 -0.82073,-5.012274 -0.66061,-1.278681 -2.57488,-2.991369 -3.34344,-2.991369 -0.44714,0 -0.33975,-0.262443 0.49764,-1.216183 1.04204,-1.186813 1.25821,-2.451608 0.67849,-3.969608 -0.25085,-0.656817 -0.68178,-1.335164 -0.95763,-1.507439 -0.41199,-0.257292 -0.50156,-0.632593 -0.50156,-2.101665 v -1.788438 l -10.12031,-0.0011 c -9.68403,-0.0011 -10.15807,-0.024 -10.99613,-0.534959 -1.62539,-0.990975 -1.63777,-1.099365 -1.63731,-14.338366 4.6e-4,-13.4137395 -0.006,-13.3647325 1.85167,-14.2983335 0.86754,-0.436024 2.53892,-0.461095 26.45833,-0.396875 l 25.53229,0.06855 0.85061,0.606716 c 0.52625,0.375361 0.95448,0.980711 1.12301,1.5875 0.16782,0.604279 0.27296,5.4784625 0.27387,12.6970955 0.002,12.949545 -0.0141,13.084781 -1.63625,14.073783 -0.83641,0.509945 -1.3133,0.534014 -10.59926,0.534958 l -9.72343,9.9e-4 v 1.57254 c 0,1.469142 -0.0526,1.603592 -0.79937,2.044743 -0.83841,0.49526 -1.84647,2.240026 -1.84647,3.195902 0,0.872395 0.49811,1.982504 1.23725,2.757387 l 0.67442,0.707027 -1.04003,0.530583 c -1.6068,0.819729 -2.88307,2.399326 -3.22435,3.990686 -0.16122,0.751718 -0.29312,2.730119 -0.29312,4.396439 v 3.0297 h -0.76373 -0.76372 z M 34.492638,32.03869 v -3.704167 h 5.68854 5.68855 v 3.716345 3.716346 l 9.72343,-0.07833 c 10.85198,-0.08741 10.60509,-0.04534 11.32481,-1.929894 0.34512,-0.903703 0.39311,-2.76461 0.32754,-12.700514 -0.084,-12.7362705 -0.0866,-12.7569245 -1.6325,-13.4097215 -1.19476,-0.504507 -50.43996,-0.514182 -51.63291,-0.01014 -1.60709,0.679017 -1.57299,0.40517 -1.65647,13.3018785 -0.0857,13.240395 -0.0529,13.547428 1.53151,14.338931 0.83184,0.415547 1.9287,0.462651 10.78177,0.463021 l 9.85573,4.1e-4 z m -0.0753,-5.886979 c 0.21396,-1.731241 1.09718,-3.115223 2.56806,-4.024056 1.11249,-0.687395 1.55569,-0.803165 3.04271,-0.794804 3.19756,0.01798 5.38718,1.839863 5.9505,4.951151 l 0.17964,0.992188 h -5.93994 -5.93994 z m 4.37995,-5.86976 c -0.47007,-0.211292 -1.09471,-0.777854 -1.38807,-1.259027 -1.96303,-3.219753 2.37263,-6.606524 5.04124,-3.93792 2.52377,2.523778 -0.38723,6.664934 -3.65317,5.196947 z m 2.87895,34.396898 c 0.0968,-3.741482 0.1146,-3.84063 0.88932,-4.937365 2.41411,-3.417583 7.60939,-2.989395 9.51515,0.784228 0.32739,0.648279 0.49117,1.860015 0.599,4.431767 l 0.1484,3.53955 h -5.6253 -5.6253 z m -25.3076,-8.60508 c -0.92729,-0.383553 -1.75876,-1.514827 -1.90283,-2.588929 -0.27089,-2.019655 1.14471,-3.50865 3.3357,-3.50865 1.34392,0 2.83774,1.208823 3.07828,2.49098 0.45594,2.430383 -2.20724,4.55956 -4.51115,3.606599 z m 44.15582,0.0073 c -0.30732,-0.131951 -0.81021,-0.559565 -1.11753,-0.950254 -1.7292,-2.198328 -0.31259,-5.154575 2.47005,-5.154575 2.96507,0 4.37556,3.287178 2.30076,5.361979 -0.84416,0.844156 -2.59035,1.199227 -3.65328,0.742852 z M 31.714518,45.86986 c -0.78005,-0.183219 -1.91325,-1.346356 -2.06009,-2.114513 -0.32732,-1.71228 1.03874,-3.510936 2.66854,-3.513584 1.45162,-0.0024 2.96342,1.481896 2.96342,2.909427 0,1.664149 -1.90106,3.111113 -3.57187,2.71867 z m 14.47586,-0.107159 c -0.95375,-0.274748 -1.90553,-1.551577 -1.90716,-2.558505 -0.002,-0.943909 0.72266,-2.119833 1.57785,-2.562069 1.03678,-0.536146 1.82088,-0.504348 2.83669,0.115039 0.91875,0.560202 1.43642,1.847379 1.213,3.016133 -0.14512,0.759114 -1.27399,2.023724 -1.80652,2.023724 -0.18653,0 -0.49772,0.04866 -0.69152,0.108146 -0.1938,0.05948 -0.74386,-0.0046 -1.22234,-0.142468 z m 5.89705,-1.024011 c -0.0899,-0.145521 -0.45415,-0.264584 -0.80936,-0.264584 -0.62909,0 -0.64584,-0.0531 -0.64584,-2.047372 v -2.04737 l 1.38631,1.386311 c 1.23441,1.234411 1.35037,1.443858 1.05833,1.91149 -0.18039,0.288849 -0.32798,0.705388 -0.32798,0.925643 0,0.452236 -0.41345,0.53717 -0.66146,0.135882 z"
       id="path826"
       inkscape:connector-curvature="0"
       inkscape:export-filename="/home/apiad/Projects/personal/auditorium/auditorium/static/favicon.ico.png"
       inkscape:export-xdpi="299.91006"
       inkscape:export-ydpi="299.91006" />
    <text
       xml:space="preserve"
       style="font-style:normal;font-variant:normal;font-weight:normal;font-stretch:normal;font-size:21.78043938px;line-height:1.25;font-family:Ubuntu;-inkscape-font-specification:Ubuntu;letter-spacing:0px;word-spacing:0px;fill:#1b55c1;fill-opacity:1;stroke:none;stroke-width:0.68063873"
       x="-15.274676"
       y="85.89666"
       id="text830"><tspan
         sodipodi:role="line"
         id="tspan828"
         x="-15.274676"
         y="85.89666"
         style="fill:#1b55c1;fill-opacity:1;stroke-width:0.68063873">Auditorium</tspan></text>
  </g>
</svg>
